<svg width="30" height="30" viewBox="0 0 30 30" fill="none" xmlns="http://www.w3.org/2000/svg">
<path d="M15 2.8125C12.5895 2.8125 10.2332 3.52728 8.22899 4.86646C6.22477 6.20564 4.66267 8.10907 3.74022 10.336C2.81778 12.563 2.57643 15.0135 3.04668 17.3777C3.51694 19.7418 4.67769 21.9134 6.38214 23.6179C8.08659 25.3223 10.2582 26.4831 12.6223 26.9533C14.9865 27.4236 17.437 27.1822 19.664 26.2598C21.8909 25.3373 23.7944 23.7752 25.1335 21.771C26.4727 19.7668 27.1875 17.4105 27.1875 15C27.1838 11.7688 25.8985 8.67105 23.6137 6.38626C21.329 4.10147 18.2312 2.81623 15 2.8125ZM20.8044 12.8659L13.9288 19.4284C13.754 19.5947 13.522 19.6875 13.2806 19.6875C13.0393 19.6875 12.8073 19.5947 12.6325 19.4284L9.19556 16.1472C9.01601 15.9752 8.91206 15.7389 8.90656 15.4903C8.90105 15.2418 8.99444 15.0012 9.16621 14.8214C9.33798 14.6416 9.57408 14.5374 9.82266 14.5315C10.0712 14.5257 10.312 14.6188 10.4919 14.7903L13.2806 17.4536L19.5081 11.5091C19.6881 11.3376 19.9288 11.2445 20.1774 11.2503C20.4259 11.2561 20.662 11.3604 20.8338 11.5401C21.0056 11.7199 21.099 11.9605 21.0935 12.2091C21.088 12.4577 20.984 12.6939 20.8044 12.8659Z" fill="#45D995"/>
</svg>
