<svg width="158" height="49" viewBox="0 0 158 49" fill="none" xmlns="http://www.w3.org/2000/svg">
<path d="M1 23.798C3.36344 22.3899 9.30581 19.5738 14.1677 19.5738C20.2452 19.5738 25.3097 24.326 32.4 25.3821C39.4903 26.4382 44.5548 23.798 47.5935 22.2139C50.6323 20.6298 52.6581 18.5177 57.7226 17.9897C62.7871 17.4617 70.8903 16.9336 71.9032 19.5738C72.9161 22.2139 71.9032 31.1905 78.9935 30.6625C86.0839 30.1344 85.071 13.7654 88.1097 13.2374C91.1484 12.7093 95.2 16.4056 98.2387 16.4056C101.277 16.4056 103.303 7.95705 109.381 9.54115C115.458 11.1252 116.471 17.9897 120.523 15.3495C124.574 12.7093 123.561 0.0365674 128.626 1.62066C133.69 3.20476 137.742 8.48509 143.819 9.54115C148.681 10.386 153.273 10.5972 154.961 10.5972H158" stroke="#00D673"/>
<path d="M14.1677 19.0896C9.30581 19.0896 3.36344 21.9058 1 23.3139V48.4958H158V10.1131H154.961C153.273 10.1131 148.681 9.90187 143.819 9.05702C137.742 8.00096 133.69 2.72063 128.626 1.13653C123.561 -0.447563 124.574 12.2252 120.523 14.8654C116.471 17.5055 115.458 10.6411 109.381 9.05702C103.303 7.47292 101.277 15.9214 98.2387 15.9214C95.2 15.9214 91.1484 12.2252 88.1097 12.7533C85.071 13.2813 86.0839 29.6503 78.9935 30.1783C71.9032 30.7064 72.9161 21.7298 71.9032 19.0896C70.8903 16.4495 62.7871 16.9775 57.7226 17.5056C52.6581 18.0336 50.6323 20.1457 47.5935 21.7298C44.5548 23.3139 39.4903 25.954 32.4 24.898C25.3097 23.8419 20.2452 19.0896 14.1677 19.0896Z" fill="url(#paint0_linear)"/>
<defs>
<linearGradient id="paint0_linear" x1="79.5" y1="48.4958" x2="79.5" y2="1.00003" gradientUnits="userSpaceOnUse">
<stop stop-color="#45D995" stop-opacity="0"/>
<stop offset="1" stop-color="#45D995" stop-opacity="0.2"/>
</linearGradient>
</defs>
</svg>
