<svg width="158" height="49" viewBox="0 0 158 49" fill="none" xmlns="http://www.w3.org/2000/svg">
<path d="M1 6.85583C3.36344 8.05313 9.30581 10.4477 14.1677 10.4477C20.2452 10.4477 25.3097 6.40685 32.4 5.50888C39.4903 4.61091 44.5548 6.85583 47.5935 8.20279C50.6323 9.54974 52.6581 11.3457 57.7226 11.7946C62.7871 12.2436 70.8903 12.6926 71.9032 10.4477C72.9161 8.20279 71.9032 0.570022 78.9935 1.01901C86.0839 1.46799 85.071 15.3865 88.1097 15.8355C91.1484 16.2845 95.2 13.1416 98.2387 13.1416C101.277 13.1416 103.303 20.3254 109.381 18.9784C115.458 17.6315 116.471 11.7947 120.523 14.0396C124.574 16.2845 123.561 27.0601 128.626 25.7132C133.69 24.3662 137.742 19.8764 143.819 18.9784C148.681 18.26 153.273 18.0804 154.961 18.0804H158" stroke="#FF325B"/>
<path d="M14.1677 10.4477C9.30581 10.4477 3.36344 8.05313 1 6.85583V48.885H158V18.0805H154.961C153.273 18.0805 148.681 18.26 143.819 18.9784C137.742 19.8764 133.69 24.3662 128.626 25.7132C123.561 27.0602 124.574 16.2845 120.523 14.0396C116.471 11.7947 115.458 17.6315 109.381 18.9784C103.303 20.3254 101.277 13.1416 98.2387 13.1416C95.2 13.1416 91.1484 16.2845 88.1097 15.8355C85.071 15.3865 86.0839 1.46799 78.9935 1.01901C71.9032 0.570022 72.9161 8.20279 71.9032 10.4477C70.8903 12.6926 62.7871 12.2436 57.7226 11.7946C52.6581 11.3457 50.6323 9.54974 47.5935 8.20279C44.5548 6.85583 39.4903 4.61091 32.4 5.50888C25.3097 6.40685 20.2452 10.4477 14.1677 10.4477Z" fill="url(#paint0_linear)"/>
<defs>
<linearGradient id="paint0_linear" x1="79.5" y1="1" x2="79.5" y2="48.885" gradientUnits="userSpaceOnUse">
<stop stop-color="#FF325B" stop-opacity="0.2"/>
<stop offset="1" stop-color="#FF325B" stop-opacity="0"/>
</linearGradient>
</defs>
</svg>
