<svg width="59" height="47" viewBox="0 0 59 47" fill="none" xmlns="http://www.w3.org/2000/svg">
<g clip-path="url(#clip0_80_3514)">
<path fill-rule="evenodd" clip-rule="evenodd" d="M20.9196 8.4375L10.3711 11.5806L8.01798 21.0993C8.42476 24.5961 9.06776 27.8685 11.1881 29.7015L28.6818 44.1998L30.7987 45.8601C33.9849 48.3593 37.004 44.866 34.5807 42.2846C34.5472 42.247 34.5104 42.2094 34.4735 42.1706C35.2916 42.8721 36.2101 43.0718 37.0144 42.9367C38.7844 42.6441 39.9955 40.7324 38.3673 38.9487C41.55 41.5408 44.2696 37.4118 41.7759 35.1464C44.5553 36.0406 47.5837 32.3652 44.6971 29.2432C44.6775 29.2197 44.6533 29.1915 44.6302 29.168L37.3924 18.1806L27.6839 11.838L20.9196 8.4375Z" fill="#FFBC85"/>
<path fill-rule="evenodd" clip-rule="evenodd" d="M28.4202 44.5086C31.1121 41.5828 27.1849 38.2176 25.0151 40.201L22.6896 42.4558C22.6631 42.4829 22.6389 42.5075 22.6124 42.5275C20.6604 44.5285 24.2073 49.0875 27.1423 45.8962L28.4202 44.5086Z" fill="#FFE5C1"/>
<path fill-rule="evenodd" clip-rule="evenodd" d="M20.96 36.1225L18.5032 38.7486L18.4928 38.7627C17.261 40.0963 18.116 42.142 19.5726 42.9398C20.4749 43.4345 21.6053 43.4556 22.6113 42.5309L25.2433 42.4898L25.0139 40.2032L25.3504 39.8801C27.9824 37.3292 24.1831 32.9218 21.2181 35.844L20.96 36.1225Z" fill="#FFE5C1"/>
<path fill-rule="evenodd" clip-rule="evenodd" d="M16.5719 32.5202L14.2695 35.0136L13.9469 35.3672C11.6756 37.8253 15.7434 41.697 18.0896 39.1872L18.4929 38.7606C18.5263 38.723 20.9935 38.461 21.262 38.4305L21.2182 35.8419L22.0052 34.9995C24.7144 32.1007 20.4807 28.2855 17.9029 31.0797L16.5719 32.5202Z" fill="#FFE5C1"/>
<path fill-rule="evenodd" clip-rule="evenodd" d="M11.1882 29.7017L10.4069 30.5641C8.00425 33.2255 11.5846 37.4673 14.2695 35.0127L16.474 34.6661L16.5719 32.5205C18.7487 30.0072 14.9529 25.5351 11.9649 28.8416L11.1882 29.7017Z" fill="#FFE5C1"/>
<path fill-rule="evenodd" clip-rule="evenodd" d="M34.8031 19.207L31.5593 19.9637L32.8315 21.2809L42.6575 31.2437L42.7244 31.3189C43.909 32.5973 44.0968 33.9662 43.72 35.0801C45.6617 34.3234 46.897 31.6256 44.696 29.2462L44.6292 29.171L41.6815 26.183L34.8031 19.207Z" fill="#F5A96C"/>
<path fill-rule="evenodd" clip-rule="evenodd" d="M20.9198 8.4375L18.8536 10.462L25.3113 13.7109L27.684 11.8368L20.9198 8.4375Z" fill="#F5A96C"/>
<path fill-rule="evenodd" clip-rule="evenodd" d="M27.6828 11.8399L25.3101 13.7141L23.0757 15.4742C17.4327 19.9298 22.1135 24.3302 25.461 22.8215L29.2269 20.5079L31.5592 19.9651L34.8031 19.2084L41.6814 26.1843L44.6291 29.1724C46.4832 28.4638 49.1048 26.4217 51.935 21.7734L47.6333 12.5955L37.5872 7.6875L35.0082 9.78722C34.5841 10.1315 34.7121 10.0657 34.1774 10.0481C32.2426 9.9858 29.7823 10.182 28.3384 11.3206L27.6828 11.8399Z" fill="#FFE5C1"/>
<path fill-rule="evenodd" clip-rule="evenodd" d="M27.6725 18.9753L23.9066 21.2888C22.8799 21.753 21.7264 21.6601 20.7838 21.1784C21.602 22.7799 23.7142 23.6059 25.4612 22.8187L29.227 20.5051L31.5594 19.9623L34.7629 19.2161C33.2787 17.9201 33.0136 17.7309 30.0014 18.4359L27.6725 18.9753Z" fill="#FED1A3"/>
<path fill-rule="evenodd" clip-rule="evenodd" d="M49.5922 19.4727C47.0721 23.6087 44.7201 25.6814 42.9259 26.5896C42.7243 26.693 42.5284 26.7788 42.3405 26.8505L44.6291 29.1711C46.4832 28.4626 49.1048 26.4204 51.9349 21.7721L49.5922 19.4727Z" fill="#FED1A3"/>
<path fill-rule="evenodd" clip-rule="evenodd" d="M10.8309 4.56281C11.8196 3.60401 13.3949 3.64161 14.3409 4.64506L18.8743 9.46491C19.137 9.74691 19.1301 10.1969 18.8535 10.4648L20.9197 8.44031L22.5214 6.86581C22.798 6.59791 22.8072 6.14789 22.5422 5.86589L18.0088 1.04486C17.0593 0.0343621 15.4748 0.00263718 14.4861 0.973187L10.8309 4.56281Z" fill="white"/>
<path fill-rule="evenodd" clip-rule="evenodd" d="M9.61636 32.5999C9.63941 34.8524 12.2172 36.8899 14.2707 35.0134L15.7146 33.453L16.5731 32.5212C17.4719 31.4825 17.3509 30.1148 16.6941 29.0938C16.6906 29.6918 16.4959 30.2899 16.0476 30.8093L14.5196 32.4625L13.7487 33.3014C12.2506 34.6656 10.4772 33.9535 9.61636 32.5999Z" fill="#FED1A3"/>
<path fill-rule="evenodd" clip-rule="evenodd" d="M13.3846 37.7085C13.9227 39.5509 16.4371 40.9574 18.0884 39.1867L18.4917 38.7601C18.4952 38.7531 18.4987 38.7496 18.5021 38.746L20.9589 36.1199C21.0465 36.02 21.1306 35.9272 21.2182 35.8414L22.0052 34.999C23.4653 33.4386 22.9098 31.6091 21.6826 30.6914C21.905 31.5339 21.7264 32.5068 20.899 33.3904L20.1119 34.2329C20.0244 34.3186 19.9402 34.4115 19.8527 34.5078V34.5113L17.3959 37.1375C17.3924 37.141 17.3889 37.1445 17.382 37.148L16.981 37.5781C15.8851 38.7543 14.4113 38.531 13.3846 37.7085Z" fill="#FED1A3"/>
<path fill-rule="evenodd" clip-rule="evenodd" d="M22.6897 42.4588L24.4828 40.7222L25.014 40.2028L25.3505 39.8797C26.7506 38.5214 26.33 36.6379 25.1788 35.6133C25.4242 36.511 25.2422 37.525 24.3952 38.3463L24.0622 38.6695L23.1126 39.5871L21.7333 40.9278L21.6561 40.996C20.6501 41.9207 19.5196 41.9007 18.6173 41.4084C18.3949 41.285 18.1864 41.1334 17.9985 40.9584C18.2209 41.7726 18.8167 42.5258 19.5738 42.9382C20.4761 43.4329 21.6065 43.4541 22.6125 42.5293L22.6897 42.4588Z" fill="#FED1A3"/>
<path fill-rule="evenodd" clip-rule="evenodd" d="M28.4203 44.5106C29.7662 43.0466 29.4562 41.4744 28.5413 40.5156C28.5205 41.1654 28.2521 41.8634 27.6332 42.5331L26.3541 43.9255C24.7823 45.6304 23.0365 45.1181 22.0536 43.9666C22.0674 46.0534 24.7996 48.4457 27.1412 45.8983L28.4203 44.5106Z" fill="#FED1A3"/>
<path d="M41.776 36.0562C41.5593 36.0562 41.3415 35.9752 41.1698 35.813L37.5826 32.4055C37.2231 32.0636 37.2023 31.489 37.5376 31.1212C37.873 30.7546 38.4365 30.7335 38.796 31.0754L42.3833 34.4829C42.7428 34.8248 42.7635 35.3994 42.4282 35.7672C42.2519 35.9587 42.0145 36.0562 41.776 36.0562Z" fill="#F5A96C"/>
<path d="M38.3662 39.8594C38.1496 39.8594 37.9318 39.7783 37.7601 39.6161L34.1694 36.2063C33.8099 35.8644 33.7891 35.2898 34.1244 34.922C34.4586 34.5554 35.0233 34.5343 35.3828 34.8762L38.9735 38.286C39.333 38.628 39.3538 39.2025 39.0184 39.5703C38.8433 39.7618 38.6048 39.8594 38.3662 39.8594Z" fill="#F5A96C"/>
<path d="M34.5911 43.1993C34.3744 43.1993 34.1567 43.1194 33.985 42.9561L32.1573 41.223C31.7967 40.881 31.7771 40.3065 32.1112 39.9387C32.4454 39.5709 33.0089 39.5498 33.3696 39.8917L35.1972 41.6248C35.5579 41.9667 35.5775 42.5413 35.2433 42.9091C35.0682 43.1018 34.8296 43.1993 34.5911 43.1993Z" fill="#F5A96C"/>
<path fill-rule="evenodd" clip-rule="evenodd" d="M49.5923 19.4707L37.586 7.68544L36.4798 6.59856C36.2044 6.33066 36.194 5.88064 36.4602 5.59864L40.9923 0.778785C41.9407 -0.231715 43.5263 -0.262265 44.5151 0.70711L56.1422 12.1199L58.2383 14.1761C59.227 15.1455 59.257 16.7647 58.3086 17.7752L56.141 20.0782L53.7753 22.595C53.5126 22.8735 53.0712 22.8841 52.7958 22.6162L51.9338 21.7702L49.5923 19.4707ZM3.80161 11.4609L14.485 0.971631C15.4749 0.00225599 17.0593 0.032806 18.0089 1.04448L22.5422 5.86433C22.8072 6.14633 22.798 6.59635 22.5214 6.86425L20.9197 8.43876L8.01803 21.1006L6.20425 22.8819C5.92768 23.1498 5.48749 23.1392 5.22475 22.8607L0.692586 18.0409C-0.256946 17.0304 -0.226985 15.4112 0.762879 14.4418L3.80161 11.4609Z" fill="black"/>
<path fill-rule="evenodd" clip-rule="evenodd" d="M55.2561 11.25V11.2535V11.25ZM53.1496 17.1426L50.7838 19.663C50.5176 19.9415 50.0809 19.952 49.8043 19.6806L51.9338 21.7745L52.7958 22.6205C53.0712 22.8884 53.5126 22.8778 53.7753 22.5993L56.1411 20.0825L58.3086 17.7795C59.257 16.769 59.227 15.1498 58.2383 14.1804L55.5868 11.5778L55.8126 11.8011L55.2572 11.2547C56.2332 12.2241 56.2632 13.8362 55.3183 14.8408L53.1496 17.1426Z" fill="black"/>
</g>
<defs>
<clipPath id="clip0_80_3514">
<rect width="59" height="47" fill="white"/>
</clipPath>
</defs>
</svg>
