<svg width="56" height="60" viewBox="0 0 56 60" fill="none" xmlns="http://www.w3.org/2000/svg">
<g clip-path="url(#clip0_79_3480)">
<path d="M27.946 47.6457C41.3183 47.6457 52.1586 36.9798 52.1586 23.8228C52.1586 10.6658 41.3183 0 27.946 0C14.5737 0 3.73334 10.6658 3.73334 23.8228C3.73334 36.9798 14.5737 47.6457 27.946 47.6457Z" fill="#FFD15C"/>
<path d="M8.33098 37.7578L0 51.9665L9.72347 51.4586L14.1411 59.998L21.8478 46.8523C16.3258 45.4468 11.5841 42.1751 8.33098 37.7578Z" fill="#181A20"/>
<path d="M47.6089 37.6875C44.3798 42.1166 39.6381 45.4001 34.1281 46.8292L41.8589 59.9985L46.2765 51.4591L55.9999 51.967L47.6089 37.6875Z" fill="#181A20"/>
<path d="M27.946 41.0901C37.6387 41.0901 45.4962 33.3591 45.4962 23.8224C45.4962 14.2857 37.6387 6.55469 27.946 6.55469C18.2532 6.55469 10.3957 14.2857 10.3957 23.8224C10.3957 33.3591 18.2532 41.0901 27.946 41.0901Z" fill="#F8B64C"/>
<path d="M39.9743 21.9557C40.5145 21.436 40.2144 20.5266 39.4701 20.4203L32.5436 19.4281C32.2435 19.3809 31.9915 19.2037 31.8594 18.9321L28.7623 12.7549C28.4262 12.0817 27.4538 12.0817 27.1177 12.7549L24.0326 18.9321C23.9006 19.1919 23.6365 19.3809 23.3484 19.4281L16.4219 20.4203C15.6776 20.5266 15.3775 21.436 15.9177 21.9557L20.9235 26.7628C21.1396 26.9754 21.2356 27.2707 21.1876 27.5541L20.0112 34.3337C19.8791 35.0659 20.6714 35.6329 21.3436 35.2785L27.5379 32.0778C27.802 31.936 28.1261 31.936 28.3902 32.0778L34.5844 35.2785C35.2566 35.6211 36.0369 35.0659 35.9169 34.3337L34.7284 27.5541C34.6804 27.2589 34.7764 26.9636 34.9925 26.7628L39.9743 21.9557Z" fill="white"/>
</g>
<defs>
<clipPath id="clip0_79_3480">
<rect width="56" height="60" fill="white"/>
</clipPath>
</defs>
</svg>
