<svg width="60" height="60" viewBox="0 0 60 60" fill="none" xmlns="http://www.w3.org/2000/svg">
<g clip-path="url(#clip0_79_3487)">
<path d="M25.8621 25.8637C25.8621 32.1482 20.7672 37.243 14.4828 37.243C8.19828 37.243 3.10345 32.1482 3.10345 25.8637C3.10345 19.5792 8.19828 14.4844 14.4828 14.4844C20.7672 14.4844 25.8621 19.5792 25.8621 25.8637Z" fill="#DEDEE6"/>
<path d="M23.7931 25.8611C23.7931 31.0038 19.6254 35.1715 14.4828 35.1715C9.3401 35.1715 5.17242 31.0038 5.17242 25.8611C5.17242 20.7185 9.3401 16.5508 14.4828 16.5508C19.6254 16.5508 23.7931 20.7185 23.7931 25.8611Z" fill="#F3F3FB"/>
<path d="M60 11.3793C60 17.6638 54.9051 22.7586 48.6206 22.7586C42.3362 22.7586 37.2413 17.6638 37.2413 11.3793C37.2413 5.09483 42.3362 0 48.6206 0C54.9051 0 60 5.09483 60 11.3793Z" fill="#DEDEE6"/>
<path d="M57.931 11.3807C57.931 16.5233 53.7633 20.691 48.6207 20.691C43.478 20.691 39.3103 16.5233 39.3103 11.3807C39.3103 6.23799 43.478 2.07031 48.6207 2.07031C53.7633 2.07031 57.931 6.23799 57.931 11.3807Z" fill="#F3F3FB"/>
<path d="M46.5517 48.6215C46.5517 54.906 41.4569 60.0008 35.1724 60.0008C28.8879 60.0008 23.7931 54.906 23.7931 48.6215C23.7931 42.337 28.8879 37.2422 35.1724 37.2422C41.4569 37.2422 46.5517 42.337 46.5517 48.6215Z" fill="#DEDEE6"/>
<path d="M44.4828 48.6189C44.4828 53.7616 40.3151 57.9293 35.1724 57.9293C30.0298 57.9293 25.8621 53.7616 25.8621 48.6189C25.8621 43.4763 30.0298 39.3086 35.1724 39.3086C40.3151 39.3086 44.4828 43.4763 44.4828 48.6189Z" fill="#F3F3FB"/>
<path d="M55.8621 39.311C54.4138 39.311 53.131 38.5662 52.3965 37.4282C51.9724 36.7765 51.7241 36.0007 51.7241 35.1731C51.7241 32.8869 53.5758 31.0352 55.8621 31.0352C58.1483 31.0352 60 32.8869 60 35.1731C60 37.4593 58.1483 39.311 55.8621 39.311Z" fill="white"/>
<path d="M55.8415 20.1844C53.8759 21.7878 51.3622 22.7602 48.6208 22.7602C47.2553 22.7602 45.9518 22.5223 44.7518 22.0878V22.0775C43.5208 21.643 42.3932 20.9913 41.4001 20.1844C41.6587 16.9982 44.338 14.4844 47.5863 14.4844H49.6553C52.9035 14.4844 55.5828 16.9982 55.8415 20.1844Z" fill="#181A20"/>
<path d="M52.7587 10.345C52.7587 12.6299 50.9056 14.4829 48.6207 14.4829C46.3358 14.4829 44.4828 12.6299 44.4828 10.345C44.4828 8.06005 46.3358 6.20703 48.6207 6.20703C50.9056 6.20703 52.7587 8.06005 52.7587 10.345Z" fill="#181A20"/>
<path d="M35.1724 59.9985C32.4207 59.9985 29.8965 59.0261 27.931 57.402C28.2 54.2261 30.8793 51.7227 34.1172 51.7227H36.1862C39.4345 51.7227 42.1138 54.2364 42.3724 57.4227L42.3828 57.433C40.4172 59.0365 37.9138 59.9985 35.1724 59.9985Z" fill="#181A20"/>
<path d="M39.2896 47.5872C39.2896 49.8721 37.4366 51.7251 35.1517 51.7251C32.8668 51.7251 31.0138 49.8721 31.0138 47.5872C31.0138 45.3022 32.8668 43.4492 35.1517 43.4492C37.4366 43.4492 39.2896 45.3022 39.2896 47.5872Z" fill="#181A20"/>
<path d="M28.9655 0C31.2517 0 33.1034 1.85172 33.1034 4.13793C33.1034 4.64483 33.0103 5.12069 32.8448 5.56552C32.2655 7.14828 30.7448 8.27586 28.9655 8.27586C26.6793 8.27586 24.8276 6.42414 24.8276 4.13793C24.8276 1.85172 26.6793 0 28.9655 0Z" fill="white"/>
<path d="M14.4827 37.2407C12.4758 37.2407 10.5931 36.7235 8.95857 35.8131C8.34823 35.4821 7.77926 35.089 7.24133 34.6442C7.5103 31.4683 10.1896 28.9648 13.4275 28.9648H15.4965C18.7448 28.9648 21.4241 31.4786 21.6827 34.6648L21.6931 34.6752C19.7275 36.2786 17.2241 37.2407 14.4827 37.2407Z" fill="#181A20"/>
<path d="M18.6 24.8293C18.6 27.1143 16.7469 28.9673 14.462 28.9673C12.1771 28.9673 10.3241 27.1143 10.3241 24.8293C10.3241 22.5444 12.1771 20.6914 14.462 20.6914C16.7469 20.6914 18.6 22.5444 18.6 24.8293Z" fill="#181A20"/>
<path d="M13.4483 57.9321C11.1621 57.9321 9.31033 56.0804 9.31033 53.7942C9.31033 51.508 11.1621 49.6562 13.4483 49.6562C15.4034 49.6562 17.0379 51.0114 17.4724 52.8321C17.5448 53.1425 17.5862 53.4631 17.5862 53.7942C17.5862 56.0804 15.7345 57.9321 13.4483 57.9321Z" fill="white"/>
<path d="M4.13793 40.3438C4.86207 40.3438 5.55517 40.53 6.14483 40.8713C7.41724 41.5748 8.27586 42.93 8.27586 44.4817C8.27586 46.7679 6.42414 48.6196 4.13793 48.6196C1.85172 48.6196 0 46.7679 0 44.4817C0 42.1955 1.85172 40.3438 4.13793 40.3438Z" fill="white"/>
<path d="M4.13793 0C6.42414 0 8.27586 1.85172 8.27586 4.13793C8.27586 5.78276 7.31379 7.21034 5.91724 7.86207C5.37931 8.13103 4.76897 8.27586 4.13793 8.27586C1.85172 8.27586 0 6.42414 0 4.13793C0 1.85172 1.85172 0 4.13793 0Z" fill="white"/>
<path d="M4.98361 8.30372L6.85215 7.41406L10.5246 15.1313L8.65603 16.021L4.98361 8.30372Z" fill="#181A20"/>
<path d="M5.23969 40.3659L8.05348 35.3086L9.86124 36.3146L7.04744 41.372L5.23969 40.3659Z" fill="#181A20"/>
<path d="M32.488 6.53599L33.2044 4.59375L38.3044 6.47651L37.588 8.41875L32.488 6.53599Z" fill="#181A20"/>
<path d="M38.0716 37.5645L43.7755 21.7344L45.7216 22.4352L40.0177 38.2667L38.0716 37.5645Z" fill="#181A20"/>
<path d="M44.1439 41.5565L51.8327 36.5625L52.9603 38.2991L45.2715 43.2931L44.1439 41.5565Z" fill="#181A20"/>
<path d="M21.3711 34.9773L22.9021 33.5859L28.2814 39.5045L26.7504 40.8959L21.3711 34.9773Z" fill="#181A20"/>
<path d="M17.2306 51.8211L23.8617 50.2461L24.3388 52.2582L17.7091 53.8332L17.2306 51.8211Z" fill="#181A20"/>
<path d="M24.5587 20.4599L37.7406 14.875L38.5475 16.7797L25.3656 22.3634L24.5587 20.4599Z" fill="#181A20"/>
</g>
<defs>
<clipPath id="clip0_79_3487">
<rect width="60" height="60" fill="white"/>
</clipPath>
</defs>
</svg>
